ISO-10303-21;
HEADER;
FILE_DESCRIPTION (( 'STEP AP214' ),
    '1' );
FILE_NAME ('Deckel_HKL.STEP',
    '2026-09-18T17:10:37',
    ( '' ),
    ( '' ),
    'SwSTEP 2.0',
    'SolidWorks 2026',
    '' );
FILE_SCHEMA (( 'AUTOMOTIVE_DESIGN' ));
ENDSEC;

DATA;
#1 = DIRECTION ( 'NONE',  ( 0.000000000000000000, 0.000000000000000000, 1.000000000000000000 ) ) ;
#2 = ADVANCED_FACE ( 'NONE', ( #149 ), #266, .T. ) ;
#3 = VECTOR ( 'NONE', #200, 1000.000000000000000 ) ;
#4 = CARTESIAN_POINT ( 'NONE',  ( 0.000000000000000000, 0.000000000000000000, 0.000000000000000000 ) ) ;
#5 = AXIS2_PLACEMENT_3D ( 'NONE', #25, #279, #141 ) ;
#6 = EDGE_CURVE ( 'NONE', #61, #365, #237, .T. ) ;
#7 = CIRCLE ( 'NONE', #367, 1.600000000000000755 ) ;
#8 = DIRECTION ( 'NONE',  ( -0.000000000000000000, -1.000000000000000000, -0.000000000000000000 ) ) ;
#9 = VERTEX_POINT ( 'NONE', #162 ) ;
#10 = FACE_OUTER_BOUND ( 'NONE', #295, .T. ) ;
#11 = CARTESIAN_POINT ( 'NONE',  ( 0.000000000000000000, 2.000000000000000000, -18.07499999999999929 ) ) ;
#12 = CARTESIAN_POINT ( 'NONE',  ( 4.500000000000003553, 0.000000000000000000, 18.07499999999999929 ) ) ;
#13 = EDGE_LOOP ( 'NONE', ( #252, #299, #338, #335, #190 ) ) ;
#14 = EDGE_CURVE ( 'NONE', #363, #70, #302, .T. ) ;
#15 = CARTESIAN_POINT ( 'NONE',  ( -4.499999999999999112, 2.000000000000000000, 18.07499999999999929 ) ) ;
#16 = CIRCLE ( 'NONE', #115, 4.499999999999999112 ) ;
#17 = ORIENTED_EDGE ( 'NONE', *, *, #147, .F. ) ;
#18 = VECTOR ( 'NONE', #8, 1000.000000000000000 ) ;
#19 = VERTEX_POINT ( 'NONE', #53 ) ;
#20 = DIRECTION ( 'NONE',  ( 0.000000000000000000, 0.000000000000000000, -1.000000000000000000 ) ) ;
#21 = CARTESIAN_POINT ( 'NONE',  ( -4.500000000000005329, 2.000000000000000000, -18.07499999999999929 ) ) ;
#22 = DIRECTION ( 'NONE',  ( 0.000000000000000000, 0.000000000000000000, 1.000000000000000000 ) ) ;
#23 = VERTEX_POINT ( 'NONE', #349 ) ;
#24 = DIRECTION ( 'NONE',  ( -0.000000000000000000, 1.000000000000000000, -0.000000000000000000 ) ) ;
#25 = CARTESIAN_POINT ( 'NONE',  ( 0.000000000000000000, 2.000000000000000000, -18.07499999999999929 ) ) ;
#26 = CARTESIAN_POINT ( 'NONE',  ( 0.000000000000000000, 0.000000000000000000, -22.57499999999999929 ) ) ;
#27 = CARTESIAN_POINT ( 'NONE',  ( 4.499999999999992006, 0.000000000000000000, -18.07499999999999929 ) ) ;
#28 =( LENGTH_UNIT ( ) NAMED_UNIT ( * ) SI_UNIT ( .MILLI., .METRE. ) );
#29 = CIRCLE ( 'NONE', #314, 1.600000000000000755 ) ;
#30 = EDGE_CURVE ( 'NONE', #121, #9, #371, .T. ) ;
#31 = MANIFOLD_SOLID_BREP ( 'Schnitt-Linear austragen1', #105 ) ;
#32 = CARTESIAN_POINT ( 'NONE',  ( 4.499999999999992006, 2.000000000000000000, -18.07499999999999929 ) ) ;
#33 = ORIENTED_EDGE ( 'NONE', *, *, #241, .T. ) ;
#34 = CARTESIAN_POINT ( 'NONE',  ( 0.000000000000000000, 2.000000000000000000, -18.07499999999999929 ) ) ;
#35 = EDGE_LOOP ( 'NONE', ( #303, #72, #297, #274 ) ) ;
#36 = EDGE_CURVE ( 'NONE', #19, #108, #254, .T. ) ;
#37 = DIRECTION ( 'NONE',  ( 0.000000000000000000, 1.000000000000000000, 0.000000000000000000 ) ) ;
#38 = PLANE ( 'NONE',  #313 ) ;
#39 = ORIENTED_EDGE ( 'NONE', *, *, #100, .F. ) ;
#40 = DIRECTION ( 'NONE',  ( 3.119143179488034652E-16, 0.000000000000000000, 1.000000000000000000 ) ) ;
#41 = ORIENTED_EDGE ( 'NONE', *, *, #357, .T. ) ;
#42 = ORIENTED_EDGE ( 'NONE', *, *, #324, .T. ) ;
#43 = EDGE_CURVE ( 'NONE', #129, #75, #280, .T. ) ;
#44 = CARTESIAN_POINT ( 'NONE',  ( 1.959434878635764984E-16, 0.000000000000000000, 16.47500000000000142 ) ) ;
#45 = EDGE_LOOP ( 'NONE', ( #331, #156, #368, #152 ) ) ;
#46 = DIRECTION ( 'NONE',  ( 0.000000000000000000, 0.000000000000000000, 1.000000000000000000 ) ) ;
#47 = ORIENTED_EDGE ( 'NONE', *, *, #292, .T. ) ;
#48 = PRODUCT_DEFINITION_CONTEXT ( 'detailed design', #242, 'design' ) ;
#49 = FACE_BOUND ( 'NONE', #101, .T. ) ;
#50 = CARTESIAN_POINT ( 'NONE',  ( 4.500000000000003553, 2.000000000000000000, 18.07499999999999929 ) ) ;
#51 = VECTOR ( 'NONE', #59, 1000.000000000000000 ) ;
#52 = DIRECTION ( 'NONE',  ( 0.000000000000000000, 1.000000000000000000, 0.000000000000000000 ) ) ;
#53 = CARTESIAN_POINT ( 'NONE',  ( 4.500000000000003553, 2.000000000000000000, 18.07499999999999929 ) ) ;
#54 = CYLINDRICAL_SURFACE ( 'NONE', #92, 4.499999999999997335 ) ;
#55 = FILL_AREA_STYLE_COLOUR ( '', #264 ) ;
#56 = CIRCLE ( 'NONE', #118, 4.499999999999997335 ) ;
#57 = CIRCLE ( 'NONE', #321, 1.600000000000000755 ) ;
#58 = AXIS2_PLACEMENT_3D ( 'NONE', #251, #281, #166 ) ;
#59 = DIRECTION ( 'NONE',  ( -0.000000000000000000, 1.000000000000000000, -0.000000000000000000 ) ) ;
#60 = DIRECTION ( 'NONE',  ( 0.000000000000000000, 0.000000000000000000, -1.000000000000000000 ) ) ;
#61 = VERTEX_POINT ( 'NONE', #88 ) ;
#62 = VECTOR ( 'NONE', #225, 1000.000000000000000 ) ;
#63 = EDGE_CURVE ( 'NONE', #79, #75, #135, .T. ) ;
#64 = AXIS2_PLACEMENT_3D ( 'NONE', #249, #104, #134 ) ;
#65 = LINE ( 'NONE', #272, #51 ) ;
#66 = EDGE_LOOP ( 'NONE', ( #17, #243, #179, #187 ) ) ;
#67 = CARTESIAN_POINT ( 'NONE',  ( 0.000000000000000000, 0.000000000000000000, -16.47500000000000142 ) ) ;
#68 = ORIENTED_EDGE ( 'NONE', *, *, #127, .F. ) ;
#69 = LINE ( 'NONE', #323, #90 ) ;
#70 = VERTEX_POINT ( 'NONE', #26 ) ;
#71 = ADVANCED_FACE ( 'NONE', ( #257, #144, #374 ), #231, .F. ) ;
#72 = ORIENTED_EDGE ( 'NONE', *, *, #236, .T. ) ;
#73 = DIRECTION ( 'NONE',  ( 3.119143179488034652E-16, 0.000000000000000000, 1.000000000000000000 ) ) ;
#74 =( GEOMETRIC_REPRESENTATION_CONTEXT ( 3 ) GLOBAL_UNCERTAINTY_ASSIGNED_CONTEXT ( ( #173 ) ) GLOBAL_UNIT_ASSIGNED_CONTEXT ( ( #28, #106, #84 ) ) REPRESENTATION_CONTEXT ( 'NONE', 'WORKASPACE' ) );
#75 = VERTEX_POINT ( 'NONE', #202 ) ;
#76 = CIRCLE ( 'NONE', #148, 4.499999999999997335 ) ;
#77 = CARTESIAN_POINT ( 'NONE',  ( 1.959434878635764984E-16, 0.000000000000000000, -19.67500000000000071 ) ) ;
#78 = DIRECTION ( 'NONE',  ( 0.000000000000000000, 1.000000000000000000, 0.000000000000000000 ) ) ;
#79 = VERTEX_POINT ( 'NONE', #318 ) ;
#80 = PLANE ( 'NONE',  #207 ) ;
#81 = CARTESIAN_POINT ( 'NONE',  ( 0.000000000000000000, 0.000000000000000000, 18.07499999999999929 ) ) ;
#82 = DIRECTION ( 'NONE',  ( 0.000000000000000000, 0.000000000000000000, 1.000000000000000000 ) ) ;
#83 = EDGE_CURVE ( 'NONE', #70, #121, #16, .T. ) ;
#84 =( NAMED_UNIT ( * ) SI_UNIT ( $, .STERADIAN. ) SOLID_ANGLE_UNIT ( ) );
#85 = STYLED_ITEM ( 'NONE', ( #114 ), #31 ) ;
#86 = ORIENTED_EDGE ( 'NONE', *, *, #220, .T. ) ;
#87 = FACE_OUTER_BOUND ( 'NONE', #306, .T. ) ;
#88 = CARTESIAN_POINT ( 'NONE',  ( 0.000000000000000000, 2.000000000000000000, -16.47500000000000142 ) ) ;
#89 = EDGE_CURVE ( 'NONE', #191, #329, #334, .T. ) ;
#90 = VECTOR ( 'NONE', #298, 1000.000000000000000 ) ;
#91 = AXIS2_PLACEMENT_3D ( 'NONE', #300, #151, #296 ) ;
#92 = AXIS2_PLACEMENT_3D ( 'NONE', #364, #113, #20 ) ;
#93 = DIRECTION ( 'NONE',  ( -0.000000000000000000, -1.000000000000000000, -0.000000000000000000 ) ) ;
#94 = CARTESIAN_POINT ( 'NONE',  ( -4.500000000000005329, 2.000000000000000000, -18.07499999999999929 ) ) ;
#95 = VERTEX_POINT ( 'NONE', #44 ) ;
#96 = EDGE_CURVE ( 'NONE', #245, #121, #341, .T. ) ;
#97 = CARTESIAN_POINT ( 'NONE',  ( 0.000000000000000000, 2.000000000000000000, -18.07499999999999929 ) ) ;
#98 = VECTOR ( 'NONE', #246, 1000.000000000000000 ) ;
#99 = ORIENTED_EDGE ( 'NONE', *, *, #285, .T. ) ;
#100 = EDGE_CURVE ( 'NONE', #129, #95, #57, .T. ) ;
#101 = EDGE_LOOP ( 'NONE', ( #182, #160 ) ) ;
#102 = CARTESIAN_POINT ( 'NONE',  ( 1.959434878635764984E-16, 2.000000000000000000, -19.67500000000000071 ) ) ;
#103 = ORIENTED_EDGE ( 'NONE', *, *, #89, .F. ) ;
#104 = DIRECTION ( 'NONE',  ( 1.000000000000000000, 0.000000000000000000, -3.119143179488034652E-16 ) ) ;
#105 = CLOSED_SHELL ( 'NONE', ( #177, #288, #2, #260, #310, #192, #206, #271, #71, #247, #347 ) ) ;
#106 =( NAMED_UNIT ( * ) PLANE_ANGLE_UNIT ( ) SI_UNIT ( $, .RADIAN. ) );
#107 = CIRCLE ( 'NONE', #265, 1.600000000000000755 ) ;
#108 = VERTEX_POINT ( 'NONE', #195 ) ;
#109 =( NAMED_UNIT ( * ) SI_UNIT ( $, .STERADIAN. ) SOLID_ANGLE_UNIT ( ) );
#110 = DIRECTION ( 'NONE',  ( 0.000000000000000000, 0.000000000000000000, 1.000000000000000000 ) ) ;
#111 = DIRECTION ( 'NONE',  ( 0.000000000000000000, 1.000000000000000000, 0.000000000000000000 ) ) ;
#112 = ORIENTED_EDGE ( 'NONE', *, *, #6, .T. ) ;
#113 = DIRECTION ( 'NONE',  ( -0.000000000000000000, -1.000000000000000000, -0.000000000000000000 ) ) ;
#114 = PRESENTATION_STYLE_ASSIGNMENT (( #142 ) ) ;
#115 = AXIS2_PLACEMENT_3D ( 'NONE', #172, #284, #110 ) ;
#116 = DIRECTION ( 'NONE',  ( 0.000000000000000000, 1.000000000000000000, 0.000000000000000000 ) ) ;
#117 = DIRECTION ( 'NONE',  ( 0.000000000000000000, 0.000000000000000000, 1.000000000000000000 ) ) ;
#118 = AXIS2_PLACEMENT_3D ( 'NONE', #224, #283, #307 ) ;
#119 = CYLINDRICAL_SURFACE ( 'NONE', #250, 4.499999999999999112 ) ;
#120 = EDGE_CURVE ( 'NONE', #19, #126, #311, .T. ) ;
#121 = VERTEX_POINT ( 'NONE', #214 ) ;
#122 = CARTESIAN_POINT ( 'NONE',  ( 0.000000000000000000, 0.000000000000000000, -18.07499999999999929 ) ) ;
#123 = DIRECTION ( 'NONE',  ( -0.000000000000000000, -1.000000000000000000, -0.000000000000000000 ) ) ;
#124 = ADVANCED_BREP_SHAPE_REPRESENTATION ( 'Deckel_HKL', ( #31, #174 ), #258 ) ;
#125 = DIRECTION ( 'NONE',  ( 0.000000000000000000, 1.000000000000000000, 0.000000000000000000 ) ) ;
#126 = VERTEX_POINT ( 'NONE', #12 ) ;
#127 = EDGE_CURVE ( 'NONE', #365, #61, #7, .T. ) ;
#128 = DIRECTION ( 'NONE',  ( -0.000000000000000000, 1.000000000000000000, -0.000000000000000000 ) ) ;
#129 = VERTEX_POINT ( 'NONE', #290 ) ;
#130 = ORIENTED_EDGE ( 'NONE', *, *, #43, .F. ) ;
#131 = FACE_OUTER_BOUND ( 'NONE', #217, .T. ) ;
#132 = DIRECTION ( 'NONE',  ( -0.000000000000000000, -1.000000000000000000, -0.000000000000000000 ) ) ;
#133 = ORIENTED_EDGE ( 'NONE', *, *, #220, .F. ) ;
#134 = DIRECTION ( 'NONE',  ( -3.119143179488034652E-16, 0.000000000000000000, -1.000000000000000000 ) ) ;
#135 = CIRCLE ( 'NONE', #345, 1.600000000000000755 ) ;
#136 = CARTESIAN_POINT ( 'NONE',  ( 0.000000000000000000, 2.000000000000000000, 18.07499999999999929 ) ) ;
#137 = EDGE_CURVE ( 'NONE', #23, #70, #181, .T. ) ;
#138 = ORIENTED_EDGE ( 'NONE', *, *, #89, .T. ) ;
#139 = DIRECTION ( 'NONE',  ( 0.000000000000000000, 0.000000000000000000, 1.000000000000000000 ) ) ;
#140 = CARTESIAN_POINT ( 'NONE',  ( 0.000000000000000000, 0.000000000000000000, -18.07499999999999929 ) ) ;
#141 = DIRECTION ( 'NONE',  ( 0.000000000000000000, 0.000000000000000000, 1.000000000000000000 ) ) ;
#142 = SURFACE_STYLE_USAGE ( .BOTH. , #316 ) ;
#143 = CARTESIAN_POINT ( 'NONE',  ( -4.500000000000005329, 2.000000000000000000, -18.07499999999999929 ) ) ;
#144 = FACE_BOUND ( 'NONE', #163, .T. ) ;
#145 = DIRECTION ( 'NONE',  ( 1.000000000000000000, 0.000000000000000000, 0.000000000000000000 ) ) ;
#146 = VECTOR ( 'NONE', #238, 1000.000000000000000 ) ;
#147 = EDGE_CURVE ( 'NONE', #23, #245, #261, .T. ) ;
#148 = AXIS2_PLACEMENT_3D ( 'NONE', #253, #52, #256 ) ;
#149 = FACE_OUTER_BOUND ( 'NONE', #66, .T. ) ;
#150 = VECTOR ( 'NONE', #132, 1000.000000000000000 ) ;
#151 = DIRECTION ( 'NONE',  ( 0.000000000000000000, 1.000000000000000000, 0.000000000000000000 ) ) ;
#152 = ORIENTED_EDGE ( 'NONE', *, *, #120, .T. ) ;
#153 = DIRECTION ( 'NONE',  ( 0.000000000000000000, 0.000000000000000000, 1.000000000000000000 ) ) ;
#154 = ORIENTED_EDGE ( 'NONE', *, *, #255, .F. ) ;
#155 = PRODUCT_RELATED_PRODUCT_CATEGORY ( 'part', '', ( #291 ) ) ;
#156 = ORIENTED_EDGE ( 'NONE', *, *, #241, .F. ) ;
#157 = VECTOR ( 'NONE', #203, 1000.000000000000000 ) ;
#158 = DIRECTION ( 'NONE',  ( 0.000000000000000000, 0.000000000000000000, 1.000000000000000000 ) ) ;
#159 = ORIENTED_EDGE ( 'NONE', *, *, #147, .T. ) ;
#160 = ORIENTED_EDGE ( 'NONE', *, *, #63, .F. ) ;
#161 =( LENGTH_UNIT ( ) NAMED_UNIT ( * ) SI_UNIT ( .MILLI., .METRE. ) );
#162 = CARTESIAN_POINT ( 'NONE',  ( -4.499999999999999112, 0.000000000000000000, 18.07499999999999929 ) ) ;
#163 = EDGE_LOOP ( 'NONE', ( #221, #47 ) ) ;
#164 = FILL_AREA_STYLE ('',( #55 ) ) ;
#165 = ORIENTED_EDGE ( 'NONE', *, *, #43, .T. ) ;
#166 = DIRECTION ( 'NONE',  ( 0.000000000000000000, 0.000000000000000000, 1.000000000000000000 ) ) ;
#167 = DIRECTION ( 'NONE',  ( 0.000000000000000000, 0.000000000000000000, 1.000000000000000000 ) ) ;
#168 = VERTEX_POINT ( 'NONE', #15 ) ;
#169 = DIRECTION ( 'NONE',  ( 0.000000000000000000, 0.000000000000000000, 1.000000000000000000 ) ) ;
#170 = DIRECTION ( 'NONE',  ( -3.119143179488034652E-16, -0.000000000000000000, -1.000000000000000000 ) ) ;
#171 = DIRECTION ( 'NONE',  ( 0.000000000000000000, 0.000000000000000000, 1.000000000000000000 ) ) ;
#172 = CARTESIAN_POINT ( 'NONE',  ( 0.000000000000000000, 0.000000000000000000, -18.07499999999999929 ) ) ;
#173 = UNCERTAINTY_MEASURE_WITH_UNIT (LENGTH_MEASURE( 1.000000000000000082E-05 ), #28, 'distance_accuracy_value', 'NONE');
#174 = AXIS2_PLACEMENT_3D ( 'NONE', #4, #117, #145 ) ;
#175 = EDGE_CURVE ( 'NONE', #126, #363, #358, .T. ) ;
#176 = AXIS2_PLACEMENT_3D ( 'NONE', #348, #116, #308 ) ;
#177 = ADVANCED_FACE ( 'NONE', ( #216 ), #328, .F. ) ;
#178 = LINE ( 'NONE', #32, #18 ) ;
#179 = ORIENTED_EDGE ( 'NONE', *, *, #83, .T. ) ;
#180 = CIRCLE ( 'NONE', #369, 1.600000000000000755 ) ;
#181 = LINE ( 'NONE', #362, #212 ) ;
#182 = ORIENTED_EDGE ( 'NONE', *, *, #285, .F. ) ;
#183 = FACE_OUTER_BOUND ( 'NONE', #45, .T. ) ;
#184 = EDGE_LOOP ( 'NONE', ( #342, #39, #165, #99 ) ) ;
#185 = DIRECTION ( 'NONE',  ( 0.000000000000000000, 1.000000000000000000, 0.000000000000000000 ) ) ;
#186 = ORIENTED_EDGE ( 'NONE', *, *, #255, .T. ) ;
#187 = ORIENTED_EDGE ( 'NONE', *, *, #96, .F. ) ;
#188 = AXIS2_PLACEMENT_3D ( 'NONE', #232, #305, #46 ) ;
#189 = VECTOR ( 'NONE', #339, 1000.000000000000000 ) ;
#190 = ORIENTED_EDGE ( 'NONE', *, *, #83, .F. ) ;
#191 = VERTEX_POINT ( 'NONE', #67 ) ;
#192 = ADVANCED_FACE ( 'NONE', ( #10 ), #119, .T. ) ;
#193 = LINE ( 'NONE', #143, #322 ) ;
#194 = CARTESIAN_POINT ( 'NONE',  ( 0.000000000000000000, 2.000000000000000000, 18.07499999999999929 ) ) ;
#195 = CARTESIAN_POINT ( 'NONE',  ( 4.499999999999992006, 2.000000000000000000, -18.07499999999999929 ) ) ;
#196 = ORIENTED_EDGE ( 'NONE', *, *, #320, .T. ) ;
#197 = DIRECTION ( 'NONE',  ( 0.000000000000000000, 1.000000000000000000, 0.000000000000000000 ) ) ;
#198 = AXIS2_PLACEMENT_3D ( 'NONE', #140, #78, #167 ) ;
#199 = PRODUCT_DEFINITION_FORMATION_WITH_SPECIFIED_SOURCE ( 'ANY', '', #291, .NOT_KNOWN. ) ;
#200 = DIRECTION ( 'NONE',  ( -0.000000000000000000, 1.000000000000000000, -0.000000000000000000 ) ) ;
#201 = CARTESIAN_POINT ( 'NONE',  ( 0.000000000000000000, 0.000000000000000000, -18.07499999999999929 ) ) ;
#202 = CARTESIAN_POINT ( 'NONE',  ( 0.000000000000000000, 2.000000000000000000, 19.67500000000000071 ) ) ;
#203 = DIRECTION ( 'NONE',  ( -0.000000000000000000, -1.000000000000000000, -0.000000000000000000 ) ) ;
#204 = AXIS2_PLACEMENT_3D ( 'NONE', #122, #128, #267 ) ;
#205 = PRODUCT_DEFINITION_SHAPE ( 'NONE', 'NONE',  #226 ) ;
#206 = ADVANCED_FACE ( 'NONE', ( #183 ), #38, .F. ) ;
#207 = AXIS2_PLACEMENT_3D ( 'NONE', #370, #111, #332 ) ;
#208 = FACE_OUTER_BOUND ( 'NONE', #184, .T. ) ;
#209 = ORIENTED_EDGE ( 'NONE', *, *, #351, .F. ) ;
#210 = CARTESIAN_POINT ( 'NONE',  ( 4.499999999999992006, 0.000000000000000000, -18.07499999999999929 ) ) ;
#211 = ORIENTED_EDGE ( 'NONE', *, *, #36, .T. ) ;
#212 = VECTOR ( 'NONE', #93, 1000.000000000000000 ) ;
#213 = EDGE_CURVE ( 'NONE', #95, #79, #69, .T. ) ;
#214 = CARTESIAN_POINT ( 'NONE',  ( -4.500000000000005329, 0.000000000000000000, -18.07499999999999929 ) ) ;
#215 = EDGE_LOOP ( 'NONE', ( #273, #68 ) ) ;
#216 = FACE_OUTER_BOUND ( 'NONE', #35, .T. ) ;
#217 = EDGE_LOOP ( 'NONE', ( #186, #159, #333, #196, #211 ) ) ;
#218 = FACE_OUTER_BOUND ( 'NONE', #326, .T. ) ;
#219 = EDGE_LOOP ( 'NONE', ( #270, #133, #209, #312 ) ) ;
#220 = EDGE_CURVE ( 'NONE', #168, #9, #293, .T. ) ;
#221 = ORIENTED_EDGE ( 'NONE', *, *, #100, .T. ) ;
#222 = CARTESIAN_POINT ( 'NONE',  ( 0.000000000000000000, 0.000000000000000000, 18.07499999999999929 ) ) ;
#223 = CARTESIAN_POINT ( 'NONE',  ( -4.500000000000005329, 0.000000000000000000, -18.07499999999999929 ) ) ;
#224 = CARTESIAN_POINT ( 'NONE',  ( 0.000000000000000000, 0.000000000000000000, 18.07499999999999929 ) ) ;
#225 = DIRECTION ( 'NONE',  ( 3.119143179488034652E-16, 0.000000000000000000, 1.000000000000000000 ) ) ;
#226 = PRODUCT_DEFINITION ( 'UNKNOWN', '', #199, #48 ) ;
#227 = CYLINDRICAL_SURFACE ( 'NONE', #58, 1.600000000000000755 ) ;
#228 = CARTESIAN_POINT ( 'NONE',  ( 4.499999999999992006, 2.000000000000000000, -18.07499999999999929 ) ) ;
#229 = CARTESIAN_POINT ( 'NONE',  ( 0.000000000000000000, 0.000000000000000000, -16.47500000000000142 ) ) ;
#230 = PRESENTATION_LAYER_ASSIGNMENT (  '', '', ( #85 ) ) ;
#231 = PLANE ( 'NONE',  #176 ) ;
#232 = CARTESIAN_POINT ( 'NONE',  ( 0.000000000000000000, 0.000000000000000000, -18.07499999999999929 ) ) ;
#233 = APPLICATION_PROTOCOL_DEFINITION ( 'draft international standard', 'automotive_design', 1998, #340 ) ;
#234 = EDGE_CURVE ( 'NONE', #329, #191, #180, .T. ) ;
#235 = MECHANICAL_DESIGN_GEOMETRIC_PRESENTATION_REPRESENTATION (  '', ( #85 ), #74 ) ;
#236 = EDGE_CURVE ( 'NONE', #329, #365, #65, .T. ) ;
#237 = CIRCLE ( 'NONE', #294, 1.600000000000000755 ) ;
#238 = DIRECTION ( 'NONE',  ( -0.000000000000000000, -1.000000000000000000, -0.000000000000000000 ) ) ;
#239 = ORIENTED_EDGE ( 'NONE', *, *, #320, .F. ) ;
#240 = DIRECTION ( 'NONE',  ( 0.000000000000000000, 0.000000000000000000, -1.000000000000000000 ) ) ;
#241 = EDGE_CURVE ( 'NONE', #108, #363, #178, .T. ) ;
#242 = APPLICATION_CONTEXT ( 'automotive_design' ) ;
#243 = ORIENTED_EDGE ( 'NONE', *, *, #137, .T. ) ;
#244 = DIRECTION ( 'NONE',  ( -0.000000000000000000, -1.000000000000000000, -0.000000000000000000 ) ) ;
#245 = VERTEX_POINT ( 'NONE', #94 ) ;
#246 = DIRECTION ( 'NONE',  ( -3.119143179488034652E-16, -0.000000000000000000, -1.000000000000000000 ) ) ;
#247 = ADVANCED_FACE ( 'NONE', ( #208 ), #227, .F. ) ;
#248 = ORIENTED_EDGE ( 'NONE', *, *, #14, .T. ) ;
#249 = CARTESIAN_POINT ( 'NONE',  ( -4.500000000000005329, 2.000000000000000000, -18.07499999999999929 ) ) ;
#250 = AXIS2_PLACEMENT_3D ( 'NONE', #330, #244, #60 ) ;
#251 = CARTESIAN_POINT ( 'NONE',  ( 0.000000000000000000, 0.000000000000000000, 18.07499999999999929 ) ) ;
#252 = ORIENTED_EDGE ( 'NONE', *, *, #14, .F. ) ;
#253 = CARTESIAN_POINT ( 'NONE',  ( 0.000000000000000000, 2.000000000000000000, 18.07499999999999929 ) ) ;
#254 = LINE ( 'NONE', #228, #353 ) ;
#255 = EDGE_CURVE ( 'NONE', #108, #23, #289, .T. ) ;
#256 = DIRECTION ( 'NONE',  ( 0.000000000000000000, 0.000000000000000000, 1.000000000000000000 ) ) ;
#257 = FACE_BOUND ( 'NONE', #372, .T. ) ;
#258 =( GEOMETRIC_REPRESENTATION_CONTEXT ( 3 ) GLOBAL_UNCERTAINTY_ASSIGNED_CONTEXT ( ( #350 ) ) GLOBAL_UNIT_ASSIGNED_CONTEXT ( ( #161, #276, #109 ) ) REPRESENTATION_CONTEXT ( 'NONE', 'WORKASPACE' ) );
#259 = DIRECTION ( 'NONE',  ( 0.000000000000000000, 0.000000000000000000, 1.000000000000000000 ) ) ;
#260 = ADVANCED_FACE ( 'NONE', ( #218 ), #54, .T. ) ;
#261 = CIRCLE ( 'NONE', #91, 4.499999999999999112 ) ;
#262 = DIRECTION ( 'NONE',  ( -1.000000000000000000, 0.000000000000000000, 3.119143179488034652E-16 ) ) ;
#263 = EDGE_LOOP ( 'NONE', ( #327, #103, #42, #112 ) ) ;
#264 = COLOUR_RGB ( '',0.7921568627450980005, 0.8196078431372548767, 0.9333333333333333481 ) ;
#265 = AXIS2_PLACEMENT_3D ( 'NONE', #222, #197, #169 ) ;
#266 = CYLINDRICAL_SURFACE ( 'NONE', #359, 4.499999999999997335 ) ;
#267 = DIRECTION ( 'NONE',  ( 0.000000000000000000, 0.000000000000000000, 1.000000000000000000 ) ) ;
#268 = ORIENTED_EDGE ( 'NONE', *, *, #120, .F. ) ;
#269 = CARTESIAN_POINT ( 'NONE',  ( -4.499999999999999112, 2.000000000000000000, 18.07499999999999929 ) ) ;
#270 = ORIENTED_EDGE ( 'NONE', *, *, #30, .T. ) ;
#271 = ADVANCED_FACE ( 'NONE', ( #304, #49, #131 ), #80, .T. ) ;
#272 = CARTESIAN_POINT ( 'NONE',  ( 1.959434878635765477E-16, 0.000000000000000000, -19.67500000000000071 ) ) ;
#273 = ORIENTED_EDGE ( 'NONE', *, *, #6, .F. ) ;
#274 = ORIENTED_EDGE ( 'NONE', *, *, #324, .F. ) ;
#275 = CYLINDRICAL_SURFACE ( 'NONE', #361, 1.600000000000000755 ) ;
#276 =( NAMED_UNIT ( * ) PLANE_ANGLE_UNIT ( ) SI_UNIT ( $, .RADIAN. ) );
#277 = DIRECTION ( 'NONE',  ( 0.000000000000000000, 1.000000000000000000, 0.000000000000000000 ) ) ;
#278 = ORIENTED_EDGE ( 'NONE', *, *, #63, .T. ) ;
#279 = DIRECTION ( 'NONE',  ( 0.000000000000000000, 1.000000000000000000, 0.000000000000000000 ) ) ;
#280 = LINE ( 'NONE', #344, #3 ) ;
#281 = DIRECTION ( 'NONE',  ( -0.000000000000000000, 1.000000000000000000, -0.000000000000000000 ) ) ;
#282 = DIRECTION ( 'NONE',  ( 0.000000000000000000, 1.000000000000000000, 0.000000000000000000 ) ) ;
#283 = DIRECTION ( 'NONE',  ( 0.000000000000000000, 1.000000000000000000, 0.000000000000000000 ) ) ;
#284 = DIRECTION ( 'NONE',  ( 0.000000000000000000, 1.000000000000000000, 0.000000000000000000 ) ) ;
#285 = EDGE_CURVE ( 'NONE', #75, #79, #29, .T. ) ;
#286 = AXIS2_PLACEMENT_3D ( 'NONE', #309, #24, #139 ) ;
#287 = PRODUCT_CONTEXT ( 'NONE', #340, 'mechanical' ) ;
#288 = ADVANCED_FACE ( 'NONE', ( #87 ), #336, .F. ) ;
#289 = CIRCLE ( 'NONE', #5, 4.499999999999999112 ) ;
#290 = CARTESIAN_POINT ( 'NONE',  ( 0.000000000000000000, 0.000000000000000000, 19.67500000000000071 ) ) ;
#291 = PRODUCT ( 'Deckel_HKL', 'Deckel_HKL', '', ( #287 ) ) ;
#292 = EDGE_CURVE ( 'NONE', #95, #129, #107, .T. ) ;
#293 = LINE ( 'NONE', #269, #146 ) ;
#294 = AXIS2_PLACEMENT_3D ( 'NONE', #97, #37, #259 ) ;
#295 = EDGE_LOOP ( 'NONE', ( #41, #268, #239, #86 ) ) ;
#296 = DIRECTION ( 'NONE',  ( 0.000000000000000000, 0.000000000000000000, 1.000000000000000000 ) ) ;
#297 = ORIENTED_EDGE ( 'NONE', *, *, #127, .T. ) ;
#298 = DIRECTION ( 'NONE',  ( -0.000000000000000000, 1.000000000000000000, -0.000000000000000000 ) ) ;
#299 = ORIENTED_EDGE ( 'NONE', *, *, #175, .F. ) ;
#300 = CARTESIAN_POINT ( 'NONE',  ( 0.000000000000000000, 2.000000000000000000, -18.07499999999999929 ) ) ;
#301 = ORIENTED_EDGE ( 'NONE', *, *, #213, .T. ) ;
#302 = CIRCLE ( 'NONE', #198, 4.499999999999999112 ) ;
#303 = ORIENTED_EDGE ( 'NONE', *, *, #234, .F. ) ;
#304 = FACE_BOUND ( 'NONE', #215, .T. ) ;
#305 = DIRECTION ( 'NONE',  ( 0.000000000000000000, 1.000000000000000000, 0.000000000000000000 ) ) ;
#306 = EDGE_LOOP ( 'NONE', ( #355, #301, #278, #130 ) ) ;
#307 = DIRECTION ( 'NONE',  ( 0.000000000000000000, 0.000000000000000000, 1.000000000000000000 ) ) ;
#308 = DIRECTION ( 'NONE',  ( 0.000000000000000000, -0.000000000000000000, 1.000000000000000000 ) ) ;
#309 = CARTESIAN_POINT ( 'NONE',  ( 0.000000000000000000, 0.000000000000000000, 18.07499999999999929 ) ) ;
#310 = ADVANCED_FACE ( 'NONE', ( #366 ), #315, .F. ) ;
#311 = LINE ( 'NONE', #50, #157 ) ;
#312 = ORIENTED_EDGE ( 'NONE', *, *, #96, .T. ) ;
#313 = AXIS2_PLACEMENT_3D ( 'NONE', #325, #262, #40 ) ;
#314 = AXIS2_PLACEMENT_3D ( 'NONE', #194, #343, #82 ) ;
#315 = PLANE ( 'NONE',  #64 ) ;
#316 = SURFACE_SIDE_STYLE ('',( #337 ) ) ;
#317 = DIRECTION ( 'NONE',  ( -0.000000000000000000, 1.000000000000000000, -0.000000000000000000 ) ) ;
#318 = CARTESIAN_POINT ( 'NONE',  ( 1.959434878635764984E-16, 2.000000000000000000, 16.47500000000000142 ) ) ;
#319 = SHAPE_DEFINITION_REPRESENTATION ( #205, #124 ) ;
#320 = EDGE_CURVE ( 'NONE', #168, #19, #76, .T. ) ;
#321 = AXIS2_PLACEMENT_3D ( 'NONE', #81, #277, #22 ) ;
#322 = VECTOR ( 'NONE', #73, 1000.000000000000000 ) ;
#323 = CARTESIAN_POINT ( 'NONE',  ( 1.959434878635765477E-16, 0.000000000000000000, 16.47500000000000142 ) ) ;
#324 = EDGE_CURVE ( 'NONE', #191, #61, #373, .T. ) ;
#325 = CARTESIAN_POINT ( 'NONE',  ( 4.499999999999992006, 2.000000000000000000, -18.07499999999999929 ) ) ;
#326 = EDGE_LOOP ( 'NONE', ( #360, #154, #33, #248 ) ) ;
#327 = ORIENTED_EDGE ( 'NONE', *, *, #236, .F. ) ;
#328 = CYLINDRICAL_SURFACE ( 'NONE', #204, 1.600000000000000755 ) ;
#329 = VERTEX_POINT ( 'NONE', #77 ) ;
#330 = CARTESIAN_POINT ( 'NONE',  ( 0.000000000000000000, 2.000000000000000000, 18.07499999999999929 ) ) ;
#331 = ORIENTED_EDGE ( 'NONE', *, *, #175, .T. ) ;
#332 = DIRECTION ( 'NONE',  ( 0.000000000000000000, -0.000000000000000000, 1.000000000000000000 ) ) ;
#333 = ORIENTED_EDGE ( 'NONE', *, *, #351, .T. ) ;
#334 = CIRCLE ( 'NONE', #188, 1.600000000000000755 ) ;
#335 = ORIENTED_EDGE ( 'NONE', *, *, #30, .F. ) ;
#336 = CYLINDRICAL_SURFACE ( 'NONE', #286, 1.600000000000000755 ) ;
#337 = SURFACE_STYLE_FILL_AREA ( #164 ) ;
#338 = ORIENTED_EDGE ( 'NONE', *, *, #357, .F. ) ;
#339 = DIRECTION ( 'NONE',  ( -0.000000000000000000, 1.000000000000000000, -0.000000000000000000 ) ) ;
#340 = APPLICATION_CONTEXT ( 'automotive_design' ) ;
#341 = LINE ( 'NONE', #21, #150 ) ;
#342 = ORIENTED_EDGE ( 'NONE', *, *, #213, .F. ) ;
#343 = DIRECTION ( 'NONE',  ( 0.000000000000000000, 1.000000000000000000, 0.000000000000000000 ) ) ;
#344 = CARTESIAN_POINT ( 'NONE',  ( 0.000000000000000000, 0.000000000000000000, 19.67500000000000071 ) ) ;
#345 = AXIS2_PLACEMENT_3D ( 'NONE', #136, #282, #1 ) ;
#346 = FACE_OUTER_BOUND ( 'NONE', #263, .T. ) ;
#347 = ADVANCED_FACE ( 'NONE', ( #346 ), #275, .F. ) ;
#348 = CARTESIAN_POINT ( 'NONE',  ( 0.000000000000000000, 0.000000000000000000, -18.07499999999999929 ) ) ;
#349 = CARTESIAN_POINT ( 'NONE',  ( 0.000000000000000000, 2.000000000000000000, -22.57499999999999929 ) ) ;
#350 = UNCERTAINTY_MEASURE_WITH_UNIT (LENGTH_MEASURE( 1.000000000000000082E-05 ), #161, 'distance_accuracy_value', 'NONE');
#351 = EDGE_CURVE ( 'NONE', #245, #168, #193, .T. ) ;
#352 = APPLICATION_PROTOCOL_DEFINITION ( 'draft international standard', 'automotive_design', 1998, #242 ) ;
#353 = VECTOR ( 'NONE', #170, 1000.000000000000000 ) ;
#354 = CARTESIAN_POINT ( 'NONE',  ( 0.000000000000000000, 0.000000000000000000, -18.07499999999999929 ) ) ;
#355 = ORIENTED_EDGE ( 'NONE', *, *, #292, .F. ) ;
#356 = ORIENTED_EDGE ( 'NONE', *, *, #234, .T. ) ;
#357 = EDGE_CURVE ( 'NONE', #9, #126, #56, .T. ) ;
#358 = LINE ( 'NONE', #210, #98 ) ;
#359 = AXIS2_PLACEMENT_3D ( 'NONE', #11, #123, #240 ) ;
#360 = ORIENTED_EDGE ( 'NONE', *, *, #137, .F. ) ;
#361 = AXIS2_PLACEMENT_3D ( 'NONE', #201, #317, #171 ) ;
#362 = CARTESIAN_POINT ( 'NONE',  ( 0.000000000000000000, 2.000000000000000000, -22.57499999999999929 ) ) ;
#363 = VERTEX_POINT ( 'NONE', #27 ) ;
#364 = CARTESIAN_POINT ( 'NONE',  ( 0.000000000000000000, 2.000000000000000000, -18.07499999999999929 ) ) ;
#365 = VERTEX_POINT ( 'NONE', #102 ) ;
#366 = FACE_OUTER_BOUND ( 'NONE', #219, .T. ) ;
#367 = AXIS2_PLACEMENT_3D ( 'NONE', #34, #125, #153 ) ;
#368 = ORIENTED_EDGE ( 'NONE', *, *, #36, .F. ) ;
#369 = AXIS2_PLACEMENT_3D ( 'NONE', #354, #185, #158 ) ;
#370 = CARTESIAN_POINT ( 'NONE',  ( 0.000000000000000000, 2.000000000000000000, -18.07499999999999929 ) ) ;
#371 = LINE ( 'NONE', #223, #62 ) ;
#372 = EDGE_LOOP ( 'NONE', ( #138, #356 ) ) ;
#373 = LINE ( 'NONE', #229, #189 ) ;
#374 = FACE_OUTER_BOUND ( 'NONE', #13, .T. ) ;
ENDSEC;
END-ISO-10303-21;
